<svg width="24" height="24" viewBox="0 0 24 24" fill="none" xmlns="http://www.w3.org/2000/svg">
<path d="M20.25 18.75C20.25 19.9927 16.5562 21 12 21C7.44375 21 3.75 19.9927 3.75 18.75M20.25 18.75C20.25 17.6475 17.34 16.7295 13.5 16.5375M20.25 18.75C20.25 17.25 20.1 14.1 18 12C15.7605 9.7605 17.6152 6.42975 14.25 5.499M3.75 18.75C3.75 17.6475 6.66 16.7295 10.5 16.5375M3.75 18.75C3.75 17.25 3.9 14.1 6 12C8.2395 9.7605 6.38475 6.42975 9.75 5.499M13.5 16.5375C12.5006 16.4875 11.4994 16.4875 10.5 16.5375M13.5 16.5375V17.25C13.5 17.6478 13.342 18.0294 13.0607 18.3107C12.7794 18.592 12.3978 18.75 12 18.75C11.6022 18.75 11.2206 18.592 10.9393 18.3107C10.658 18.0294 10.5 17.6478 10.5 17.25V16.5375M14.25 5.499C13.6702 5.33925 12.9367 5.25 12 5.25C11.0633 5.25 10.3298 5.34075 9.75 5.499M14.25 5.499V5.25C14.25 4.65326 14.0129 4.08097 13.591 3.65901C13.169 3.23705 12.5967 3 12 3C11.4033 3 10.831 3.23705 10.409 3.65901C9.98705 4.08097 9.75 4.65326 9.75 5.25V5.499" stroke="#FFFF00" stroke-linecap="round" stroke-linejoin="round"/>
</svg>
